<svg width="591" height="526" viewBox="0 0 591 526" fill="none" xmlns="http://www.w3.org/2000/svg">
<path d="M6.85672 446.064L108.745 286L0.720886 163.919L113.864 178.508L121.554 18.8068L196.233 133.917L322.533 0L258.195 211.995L379.867 201.871L273.205 263.188L365.818 426.773L213.282 357.013L183.825 465.915L139.822 360.253L6.85672 446.064Z" fill="#FFF1D0"/>
<path d="M405.508 362.661C388.881 367.074 372.581 374.139 359.707 385.773C347.39 396.903 338.445 412.609 337.721 429.418C337.362 437.718 338.989 446.412 344.055 453.184C349.609 460.607 358.275 464.752 366.846 467.669C374.243 470.185 382.017 472.544 389.871 472.927C396.365 473.244 404.233 472.158 407.839 466.016C411.731 459.382 408.275 451.872 403.898 446.467C399.038 440.464 392.623 435.519 386.317 431.123C372.522 421.518 356.738 414.794 340.264 411.44C324.362 408.2 306.445 407.246 291.006 413.047C283.769 415.765 277.087 420.224 272.877 426.822C269.114 432.721 267.843 439.946 267.766 446.84C267.682 454.28 269.003 461.933 272.094 468.734C275.327 475.851 281.177 481.109 287.317 485.776C296.31 492.615 307.884 498.291 319.505 496.645C322.944 496.157 326.428 494.985 329.142 492.757C334.466 488.39 334.421 480.552 333.675 474.274C331.909 459.4 322.94 446.193 312.498 435.884C291.045 414.707 261.407 402.318 231.501 399.976C216.553 398.803 201.393 400.132 186.933 404.138C179.052 406.32 170.773 409.042 164.212 414.071C157.832 418.96 154.188 426.178 154.275 434.235C154.358 441.787 157.714 449.29 163.926 453.751C169.822 457.983 177.613 459.327 184.648 457.695C192.491 455.874 198.529 450.198 201.668 442.886C204.93 435.286 205.048 426.784 202.989 418.856C200.829 410.538 196.505 402.934 191.627 395.925C186.498 388.554 180.654 381.691 174.306 375.343C161.459 362.498 146.616 351.793 131.069 342.456C123.543 337.938 115.832 333.734 108.02 329.736C107.846 329.645 108.02 329.395 108.191 329.482C141.637 346.601 175.4 368.498 195.449 401.194C203.909 414.993 209.184 433.323 199.282 447.884C195.114 454.016 188.571 457.875 181.184 458.551C174.355 459.174 167.202 457.176 162.013 452.613C156.783 448.016 154.045 441.098 153.968 434.21C153.884 426.693 157.027 419.74 162.745 414.857C169.076 409.449 177.348 406.602 185.233 404.298C193.017 402.026 201.027 400.529 209.104 399.795C240.33 396.959 272.599 405.367 298.188 423.544C310.818 432.515 322.438 443.993 329.163 458.123C332.317 464.749 334.282 471.991 334.278 479.359C334.275 484.916 333.111 490.502 328.264 493.784C320.898 498.771 310.776 497.692 302.846 494.828C296.027 492.367 289.829 488.372 284.285 483.747C281.17 481.147 277.951 478.381 275.494 475.134C273.393 472.36 271.822 469.207 270.627 465.946C268.073 458.982 267.094 451.378 267.567 443.986C268.013 437.008 269.843 430.038 274.181 424.435C284.062 411.68 301.958 408.579 317.156 408.694C334.905 408.826 352.585 412.978 368.623 420.54C376.487 424.25 383.965 428.778 390.871 434.061C396.846 438.634 403.08 443.736 406.961 450.289C410.174 455.714 411.285 462.581 406.975 467.784C402.902 472.698 395.836 473.515 389.857 473.227C381.794 472.833 373.776 470.39 366.198 467.763C357.595 464.784 348.93 460.493 343.491 452.92C333.797 439.417 336.672 420.095 343.707 406.118C351.599 390.44 365.411 378.858 381.02 371.258C388.832 367.454 397.066 364.59 405.456 362.366C405.648 362.317 405.703 362.616 405.515 362.665L405.508 362.661Z" fill="black"/>
<path d="M157.079 68.3172C162.912 62.4705 167.668 53.8188 164.135 45.5047C163.291 43.521 161.957 41.6174 160.068 40.5037C157.842 39.1917 155.197 39.2683 152.734 39.6998C149.839 40.2079 141.696 41.9201 143.602 46.5314C145.048 50.0324 151.323 50.2586 154.462 50.3422C158.448 50.4466 162.448 49.8166 166.204 48.4768C169.978 47.13 173.866 45.0941 176.441 41.9515C179.271 38.4991 179.187 34.4621 176.845 30.7975C174.636 27.3382 171.577 25.7165 167.556 25.271C164.793 24.9648 161.671 25.2153 159.379 26.9485C156.859 28.8556 157.323 31.417 159.156 33.8113C161.48 36.8495 165.187 38.6035 168.811 39.5501C175.915 41.4016 183.64 40.5768 190.361 37.7161C193.765 36.2649 196.943 34.2777 199.703 31.8103C202.734 29.1027 206.793 25.0204 205.121 20.5902C203.291 15.7388 196.581 15.0358 193.887 19.5531C190.995 24.401 195.41 29.5099 199.431 31.8172C208.239 36.8704 219.002 37.382 228.898 36.9122C229.187 36.8983 229.225 37.3472 228.936 37.3611C218.622 37.8518 206.706 37.389 197.859 31.3683C194.518 29.0922 191.682 25.1248 192.842 20.8964C193.793 17.4232 197.751 15.2098 201.215 16.2643C204.692 17.3223 206.717 21.241 205.671 24.6863C204.441 28.7407 200.347 32.1687 196.999 34.5352C189.894 39.5571 180.849 41.861 172.211 40.6742C168.044 40.1035 163.744 38.7358 160.532 35.9203C158.508 34.1454 155.95 30.9576 157.609 28.2118C160.765 22.9811 170.532 24.0147 174.504 27.4009C177.236 29.7291 179.567 33.6095 179.079 37.3124C178.497 41.7113 174.574 44.8609 170.926 46.855C166.765 49.1276 162.1 50.4535 157.365 50.7424C153.466 50.9825 148.229 50.9303 144.87 48.6404C141.72 46.4931 142.901 43.0547 145.821 41.3981C147.668 40.3506 149.793 39.846 151.852 39.4179C154.131 38.9446 156.56 38.6871 158.807 39.4457C162.971 40.8517 165.159 45.4595 165.633 49.5487C166.18 54.2608 164.682 58.9208 162.145 62.8568C160.793 64.9589 159.166 66.8521 157.406 68.6165C157.204 68.8219 156.863 68.526 157.065 68.3207L157.079 68.3172Z" fill="black"/>
<path d="M142.428 446.325H498.504C502.295 446.325 505.379 443.245 505.379 439.458V153.597C505.379 149.811 502.295 146.731 498.504 146.731H142.431C138.64 146.731 135.557 149.811 135.557 153.597V439.458C135.557 443.245 138.64 446.325 142.431 446.325H142.428ZM498.504 147.629C501.797 147.629 504.48 150.305 504.48 153.597V439.458C504.48 442.747 501.801 445.427 498.504 445.427H142.431C139.138 445.427 136.456 442.751 136.456 439.458V153.597C136.456 150.309 139.135 147.629 142.431 147.629H498.504Z" fill="#000100"/>
<path d="M136.006 174.412H504.93V175.314H136.006V174.412Z" fill="#000100"/>
<path d="M494.292 155.092L494.93 155.729L481.699 168.944L481.061 168.306L494.292 155.092Z" fill="#000100"/>
<path d="M481.699 155.097L494.93 168.312L494.292 168.95L481.061 155.735L481.699 155.097Z" fill="#000100"/>
<path d="M460.574 169.077H474.703V154.965H460.574V169.077ZM473.804 168.176H461.477V155.863H473.804V168.176Z" fill="#000100"/>
<path d="M441.389 168.176H455.936V169.077H441.389V168.176Z" fill="#000100"/>
<path d="M328.872 47L332.778 61.9473L345.245 59.6574L338.307 66.4994L348.07 77.5489L337.008 75.6L337.983 90.5474L328.872 74.9492L322.691 82.7483L324.969 72.9969L310.001 69.4227L322.691 64.2234L317.809 56.4243L326.593 59.6748L328.872 47Z" fill="#3690D1"/>
<path d="M396.881 260.143C359.63 253.635 302.042 254.567 302.042 254.567C302.042 254.567 269.533 245.181 240.582 244.945C211.63 244.712 217.867 262.586 217.867 262.586C217.867 262.586 216.038 275.278 243.846 281.013C243.846 281.013 258.801 279.075 271.421 275.48C283.435 272.059 354.819 253.624 396.885 260.143H396.881Z" fill="#FF4D00"/>
<path d="M275.917 287.987C292.056 282.729 324.973 271.833 348.771 265.77C372.548 259.711 387.534 258.298 402.941 261.308C400.994 260.894 398.973 260.508 396.882 260.143C354.816 253.621 283.433 272.055 271.419 275.48C258.802 279.075 243.844 281.013 243.844 281.013L197.011 286.731C197.011 286.731 247.039 292.947 251.948 293.427C256.858 293.907 259.778 293.249 275.917 287.991V287.987Z" fill="#FF4D00"/>
<path d="M121.137 309.551C117.83 306.718 70.4536 267.823 70.4536 267.823C70.4536 267.823 53.7602 264.639 48.5616 282.043L120.99 319.25L200.426 331.852C200.426 331.852 141.544 316.692 134.61 314.778C127.677 312.864 124.443 312.38 121.137 309.551Z" fill="#FF4D00"/>
<path d="M131.37 301.55C124.631 291.837 103.304 258.712 103.304 258.712C103.304 258.712 80.2028 239.439 67.5651 229.18C54.924 218.92 37.6348 221.321 29.8578 234.647L70.4536 267.82C70.4536 267.82 117.83 306.714 121.137 309.547C124.443 312.38 127.677 312.864 134.61 314.774C141.544 316.688 200.426 331.848 200.426 331.848C200.426 331.848 168.551 321.978 155.001 317.896C141.45 313.814 138.112 311.252 131.37 301.543V301.55Z" fill="#FF4D00"/>
<path d="M154.937 294.575C150.014 286.94 114.209 231.96 114.209 231.96L118.609 229.437C118.609 229.437 113.54 219.602 106.46 210.498C99.3794 201.394 82.6686 198.488 71.4177 208.532L103.299 256.666C103.299 256.666 124.627 289.79 131.365 299.503C138.104 309.216 141.446 311.774 154.996 315.857C168.547 319.939 200.421 329.809 200.421 329.809L236.609 341.391C236.609 341.391 186.63 316.671 173.989 310.821C161.352 304.971 159.857 302.214 154.937 294.579V294.575Z" fill="#FFF1D0"/>
<path d="M419.23 264.228C414.986 262.262 409.387 260.626 402.941 259.259C387.533 256.248 372.551 257.665 348.77 263.72C324.972 269.783 292.056 280.679 275.916 285.938C259.777 291.196 256.861 291.854 251.948 291.374C247.038 290.893 197.01 284.678 197.01 284.678L190.686 283.209C190.686 283.209 164.871 251.936 152.171 237.758C139.47 223.58 127.024 224.847 118.613 229.43L114.213 231.953C114.213 231.953 150.017 286.933 154.941 294.568C159.864 302.204 161.355 304.96 173.993 310.81C186.631 316.661 236.613 341.38 236.613 341.38C236.613 341.38 251.53 349.009 266.383 346.823C281.237 344.638 290.526 342.501 333.077 337.799C375.627 333.097 408.111 349.691 431.714 371.689C455.317 393.691 582.812 517.943 582.812 517.943L591 372.368C489.129 302.535 447.627 277.38 419.23 264.228Z" fill="#FFF1D0"/>
<path d="M121.137 307.501C117.83 304.668 70.4536 265.774 70.4536 265.774C70.4536 265.774 53.7602 262.589 48.5616 279.994L120.99 317.2L200.426 329.802C200.426 329.802 141.544 314.642 134.61 312.728C127.677 310.814 124.443 310.33 121.137 307.501Z" fill="#FFF1D0"/>
<path d="M131.37 299.5C124.631 289.787 103.304 256.662 103.304 256.662C103.304 256.662 80.2028 237.389 67.5651 227.13C54.924 216.87 37.6348 219.272 29.8578 232.597L70.4536 265.77C70.4536 265.77 117.83 304.664 121.137 307.497C124.443 310.33 127.677 310.814 134.61 312.725C141.544 314.639 200.426 329.798 200.426 329.798C200.426 329.798 168.551 319.928 155.001 315.846C141.45 311.764 138.112 309.203 131.37 299.493V299.5Z" fill="#FFF1D0"/>
<path d="M154.937 296.622C150.014 288.986 114.209 234.007 114.209 234.007L118.609 231.483C118.609 231.483 113.54 221.648 106.46 212.544C99.3794 203.44 82.6686 200.534 71.4177 210.578L103.299 258.712C103.299 258.712 124.627 291.837 131.365 301.55C138.104 311.263 141.446 313.821 154.996 317.903C168.547 321.985 200.421 331.855 200.421 331.855L236.609 343.437C236.609 343.437 186.63 318.717 173.989 312.867C161.352 307.017 159.857 304.261 154.937 296.625V296.622Z" fill="#FF4D00"/>
<path d="M419.23 266.278C414.986 264.312 409.387 262.676 402.941 261.308C387.533 258.298 372.55 259.715 348.77 265.77C324.972 271.833 292.056 282.729 275.916 287.987C259.777 293.246 256.861 293.904 251.948 293.424C247.038 292.943 197.01 286.728 197.01 286.728L190.686 285.259C190.686 285.259 164.871 253.986 152.171 239.808C139.47 225.63 127.024 226.897 118.613 231.48L114.213 234.003C114.213 234.003 150.017 288.983 154.941 296.618C159.864 304.254 161.355 307.01 173.993 312.86C186.631 318.71 236.613 343.43 236.613 343.43C236.613 343.43 251.53 351.059 266.383 348.873C281.237 346.688 290.526 344.551 333.077 339.849C375.627 335.147 408.111 351.741 431.714 373.739C455.317 395.74 591 526 591 526V374.417C489.129 304.584 447.627 279.43 419.23 266.278Z" fill="#FF4D00"/>
<path d="M121.137 309.551C117.83 306.718 70.4536 267.823 70.4536 267.823C70.4536 267.823 53.7602 264.639 48.5616 282.043L120.99 319.25L200.426 331.852C200.426 331.852 141.544 316.692 134.61 314.778C127.677 312.864 124.443 312.38 121.137 309.551Z" fill="#FF4D00"/>
<path d="M131.37 301.55C124.631 291.837 103.304 258.712 103.304 258.712C103.304 258.712 80.2028 239.439 67.5651 229.18C54.924 218.92 37.6348 221.321 29.8578 234.647L70.4536 267.82C70.4536 267.82 117.83 306.714 121.137 309.547C124.443 312.38 127.677 312.864 134.61 314.774C141.544 316.688 200.426 331.848 200.426 331.848C200.426 331.848 168.551 321.978 155.001 317.896C141.45 313.814 138.112 311.252 131.37 301.543V301.55Z" fill="#FF4D00"/>
<path d="M236.609 343.75C236.724 343.75 236.835 343.684 236.891 343.573C236.968 343.416 236.905 343.228 236.748 343.152C236.365 342.964 198.25 324.216 179.616 315.175C162.87 307.048 161.515 305.169 157.017 298.94C156.477 298.195 155.867 297.349 155.191 296.434C148.989 288.081 114.822 234.379 114.477 233.836C114.382 233.69 114.187 233.645 114.041 233.739C113.895 233.833 113.849 234.027 113.943 234.174C114.288 234.717 148.466 288.436 154.682 296.81C155.358 297.718 155.968 298.564 156.504 299.308C161.072 305.639 162.449 307.55 179.341 315.742C197.971 324.78 236.086 343.527 236.47 343.715C236.515 343.736 236.564 343.747 236.609 343.747V343.75Z" fill="black"/>
<path d="M200.425 332.168C200.56 332.168 200.682 332.081 200.728 331.945C200.78 331.778 200.686 331.604 200.519 331.552C200.229 331.462 171.442 322.587 155.094 317.6C140.574 313.173 137.742 309.422 133.449 303.742C132.871 302.98 132.275 302.19 131.62 301.355C127.536 296.159 119.547 283.595 111.818 271.443C108.878 266.821 106.101 262.457 103.571 258.542C103.477 258.396 103.282 258.354 103.135 258.448C102.989 258.542 102.947 258.737 103.041 258.883C105.571 262.795 108.348 267.159 111.285 271.78C119.02 283.944 127.02 296.524 131.125 301.741C131.78 302.573 132.372 303.359 132.947 304.122C137.313 309.899 140.195 313.716 154.909 318.202C171.257 323.189 200.045 332.064 200.334 332.154C200.365 332.165 200.397 332.168 200.428 332.168H200.425Z" fill="black"/>
<path d="M195.09 330.446C195.23 330.446 195.359 330.352 195.397 330.209C195.439 330.042 195.338 329.868 195.167 329.826C194.637 329.694 142.233 316.473 132.007 313.751C123.578 311.51 121.829 309.982 117.602 306.297C116.69 305.5 115.651 304.595 114.414 303.568C108.811 298.919 95.1529 287.706 80.6965 275.831L70.6547 267.583C70.5188 267.472 70.3202 267.493 70.2121 267.625C70.1041 267.757 70.1216 267.959 70.254 268.067L80.2958 276.315C94.7522 288.189 108.411 299.402 114.014 304.052C115.247 305.075 116.278 305.976 117.191 306.77C121.369 310.417 123.278 312.081 131.846 314.36C142.076 317.082 194.487 330.303 195.014 330.435C195.038 330.442 195.066 330.446 195.09 330.446Z" fill="black"/>
<path d="M243.882 281.232C261.108 278.32 275.787 274.94 287.871 272.02C290.028 271.498 292.167 270.962 294.233 270.444C306.359 267.399 318.899 264.249 348 260.72L347.944 260.275C318.815 263.807 306.261 266.957 294.122 270.009C292.056 270.527 289.92 271.063 287.763 271.585C275.686 274.505 261.017 277.881 243.805 280.79L243.882 281.232Z" fill="black"/>
<path d="M294.996 446.325H498.504C502.295 446.325 505.379 443.245 505.379 439.458V296.528H504.476V439.458C504.476 442.747 501.797 445.427 498.501 445.427H294.996V446.325Z" fill="#000100"/>
<path d="M144.872 193.071C118.934 167.164 118.934 125.161 144.872 99.2536C170.809 73.3466 212.863 73.3466 238.801 99.2536C264.739 125.161 264.739 167.164 238.801 193.071C212.863 218.978 170.809 218.978 144.872 193.071Z" fill="#FFC849"/>
<path d="M154.313 193.63C154.466 193.63 154.619 193.564 154.724 193.431C154.905 193.205 154.867 192.874 154.64 192.694C140.396 181.317 132.225 164.358 132.225 146.164C132.225 113.332 158.968 86.6249 191.835 86.6249C192.124 86.6249 192.361 86.3917 192.361 86.0994C192.361 85.8071 192.124 85.5739 191.835 85.5739C158.386 85.5739 131.173 112.754 131.173 146.164C131.173 164.678 139.487 181.936 153.982 193.511C154.079 193.588 154.194 193.626 154.309 193.626L154.313 193.63Z" fill="#FFF1D0"/>
<path d="M164.909 165.406C171.198 163.571 177.895 159.204 178.306 152.003C178.401 150.329 178.118 148.555 177.146 147.152C176.042 145.555 174.216 144.692 172.421 144.11C170.181 143.386 164.498 141.674 163.808 145.314C163.523 146.821 164.707 148.252 165.732 149.205C166.888 150.284 168.192 151.224 169.547 152.035C172.265 153.663 175.293 154.77 178.421 155.282C181.589 155.8 185.129 155.863 188.129 154.589C189.665 153.938 191.049 152.873 191.784 151.342C192.415 150.027 192.536 148.474 192.428 147.037C192.317 145.579 191.941 144.083 191.188 142.819C190.421 141.532 189.104 140.515 187.871 139.691C186.125 138.525 183.941 137.616 181.805 137.982C181.15 138.093 180.484 138.33 179.969 138.761C178.972 139.593 178.962 141.023 179.09 142.217C179.425 145.283 181.32 147.994 183.502 150.075C187.718 154.098 193.435 156.468 199.212 156.99C202.056 157.248 204.941 157.06 207.721 156.399C210.69 155.692 214.78 154.478 215.47 151.053C216.167 147.601 213.244 144.601 209.77 145.221C206.07 145.885 205.01 150.075 205.937 153.246C206.916 156.59 209.463 159.5 211.934 161.859C214.582 164.389 217.62 166.484 220.794 168.301C222.348 169.188 223.941 170.013 225.55 170.793C225.686 170.859 225.571 171.068 225.435 170.998C221.641 169.154 217.944 167.076 214.613 164.476C211.46 162.016 208.408 158.988 206.561 155.397C205.118 152.595 204.662 148.805 207.073 146.366C209.073 144.34 212.742 144.427 214.599 146.613C216.526 148.882 216.07 152.337 213.773 154.144C212.366 155.25 210.557 155.863 208.854 156.35C207.31 156.789 205.725 157.081 204.125 157.227C197.585 157.826 190.815 156.016 185.536 152.09C183.01 150.211 180.693 147.799 179.516 144.831C178.753 142.906 178.059 139.652 180.178 138.33C181.725 137.366 183.777 137.585 185.414 138.17C188.021 139.102 190.819 141.117 191.902 143.724C192.962 146.279 193.181 149.804 191.578 152.188C189.641 155.066 185.784 155.811 182.547 155.839C179.031 155.866 175.523 155.122 172.303 153.716C170.578 152.964 168.941 152.017 167.432 150.897C166.244 150.016 165.021 149.045 164.219 147.782C163.533 146.7 163.247 145.321 164.031 144.204C164.784 143.132 166.188 142.868 167.418 142.868C169.185 142.868 170.972 143.376 172.634 143.926C174.341 144.49 176.056 145.311 177.174 146.769C179.153 149.348 178.819 153.096 177.613 155.926C176.185 159.284 173.421 161.845 170.24 163.544C168.571 164.435 166.798 165.099 164.982 165.628C164.836 165.67 164.773 165.444 164.92 165.399L164.909 165.406Z" fill="black"/>
<path d="M200.588 204.704H183.083C172.299 204.704 163.547 213.446 163.547 224.217V241.701C163.547 252.472 172.299 261.215 183.083 261.215H200.588C211.372 261.215 220.125 252.472 220.125 241.701V224.217C220.125 213.446 211.372 204.704 200.588 204.704Z" fill="black"/>
<path d="M220.126 225.473C220.126 205.887 225.248 203.934 229.244 200.983H190.293V225.491L220.126 225.473Z" fill="#FFBC00"/>
<path d="M163.435 225.473C163.435 205.887 158.313 203.934 154.316 200.983H193.268V225.491L163.435 225.473Z" fill="#FFBC00"/>
<path d="M205.874 225.491H206.244C206.244 212.666 207.93 194.594 215.961 181.338C220.749 173.434 225.582 170.984 225.627 170.96L225.463 170.629C225.414 170.654 220.488 173.152 215.644 181.146C211.188 188.503 205.874 202.167 205.874 225.491Z" fill="black"/>
<path d="M176.902 225.491H177.271C177.271 211.466 176.212 191.66 171.174 176.96C168.15 168.137 165.16 165.381 165.035 165.27L164.787 165.545C164.819 165.573 167.85 168.381 170.843 177.137C175.85 191.785 176.902 211.518 176.902 225.491Z" fill="black"/>
<path d="M191.836 272.48C186.153 272.48 181.547 267.879 181.547 262.203H202.129C202.129 267.879 197.523 272.48 191.84 272.48H191.836Z" fill="black"/>
<path d="M163.546 231.428H192.508L163.546 229.294V231.428Z" fill="#FFF1D0"/>
<path d="M163.546 237.361H192.508L163.546 235.232V237.361Z" fill="#FFF1D0"/>
<path d="M163.546 243.295H192.508L163.546 241.165V243.295Z" fill="#FFF1D0"/>
<path d="M131.174 392.518L94.1808 385.457L86.1808 415.236L78.3794 392.845L43.8463 402.725L59.7104 380.47L25.7801 366.977L69.6477 363.284L58.9438 341.551L78.024 356.749L101.55 327.62L99.7243 360.925L122 358.367L105.655 374.261L131.174 392.518Z" fill="#3690D1"/>
<path d="M64.5319 124.642L65.5598 106.239L66.5876 124.642C67.2148 135.89 76.518 145.325 87.7096 146.045L105.344 147.18L87.7096 148.314C76.518 149.035 67.2183 158.47 66.5876 169.717L65.5598 188.121L64.5319 169.717C63.9047 158.47 54.6016 149.035 43.41 148.314L25.7758 147.18L43.41 146.045C54.6016 145.325 63.9012 135.89 64.5319 124.642Z" fill="#FF4D00"/>
<path d="M502.144 90.4695L498.335 81L503.175 89.9893C506.133 95.4845 513.015 98.0354 518.799 95.7733L527.91 92.2096L519.332 96.9113C513.889 99.8973 511.44 106.809 513.767 112.596L517.576 122.066L512.736 113.077C509.778 107.582 502.896 105.031 497.112 107.293L488.001 110.856L496.579 106.155C502.022 103.169 504.471 96.2571 502.144 90.4695Z" fill="#FF4D00"/>
</svg>
